<?xml version="1.0" encoding="UTF-8"?>
<svg width="153px" height="109px" viewBox="0 0 153 109" version="1.1" xmlns="http://www.w3.org/2000/svg" xmlns:xlink="http://www.w3.org/1999/xlink">
    <title>Group 23</title>
    <g id="Module-Breakdown" stroke="none" stroke-width="1" fill="none" fill-rule="evenodd">
        <g id="Good-Stuff-We-Do-(Unique)" transform="translate(-1143.000000, -926.000000)">
            <g id="Insta-Tile" transform="translate(714.000000, 785.000000)">
                <g id="Group-Copy" transform="translate(39.000000, 93.000000)">
                    <g id="Group-23" transform="translate(466.500000, 103.000000) rotate(-10.000000) translate(-466.500000, -103.000000) translate(399.000000, 62.000000)">
                        <path d="M88.0973959,81.2944348 C74.6965336,81.0192049 61.2720311,80.9251487 47.8664407,81.1024677 C54.0176303,72.4092117 60.16882,63.7144138 66.3192217,55.0211579 C73.6721234,63.5532848 80.4040748,72.8748668 88.0973959,81.2944348" id="Fill-1" fill="#FFFFFF"></path>
                        <path d="M88.0973959,81.2944348 C74.6965336,81.0192049 61.2720311,80.9251487 47.8664407,81.1024677 C54.0176303,72.4092117 60.16882,63.7144138 66.3192217,55.0211579 C73.6721234,63.5532848 80.4040748,72.8748668 88.0973959,81.2944348 Z" id="Stroke-3" stroke="#060300" stroke-width="3.386" stroke-linecap="round" stroke-linejoin="round"></path>
                        <path d="M2.20275848,41.2407789 C46.27507,41.0482673 90.3466051,40.8549667 134.41814,40.6624551 C134.255079,44.748593 134.044653,49.0138297 133.881592,53.0991786 C89.5041227,53.9623249 45.1266539,54.048324 0.745302765,53.2388284 C0.131105925,49.5187782 1.47131294,44.9537283 2.20275848,41.2407789" id="Fill-5" fill="#ECEFF4"></path>
                        <path d="M2.20275848,41.2407789 C46.27507,41.0482673 90.3466051,40.8549667 134.41814,40.6624551 C134.255079,44.748593 134.044653,49.0138297 133.881592,53.0991786 C89.5041227,53.9623249 45.1266539,54.048324 0.745302765,53.2388284 C0.131105925,49.5187782 1.47131294,44.9537283 2.20275848,41.2407789 Z" id="Stroke-7" stroke="#060300" stroke-width="3.386" stroke-linecap="round" stroke-linejoin="round"></path>
                        <path d="M8.93973492,13.0846619 C6.51094881,16.4118147 5.23806346,20.8937175 6.0135706,25.0794904 C6.4962289,27.6859037 7.71488298,30.0345743 8.91649295,32.3307563 C9.52698209,33.5011745 10.1459933,34.6809937 10.9796054,35.6649598 C11.9666145,36.8314609 13.221681,37.6783298 14.5147094,38.3849679 C19.7371806,41.2389395 25.9768754,41.9675131 31.487547,39.8295805 C36.997444,37.6908644 41.6233712,32.5532454 43.0829671,26.2632266 C44.5441124,19.9739912 42.5553743,12.7368268 37.8922599,8.86755254 C29.7963062,2.14822371 15.2909912,4.37703221 8.93973492,13.0846619" id="Fill-9" fill="#ED7631"></path>
                        <path d="M8.93973492,13.0846619 C6.51094881,16.4118147 5.23806346,20.8937175 6.0135706,25.0794904 C6.4962289,27.6859037 7.71488298,30.0345743 8.91649295,32.3307563 C9.52698209,33.5011745 10.1459933,34.6809937 10.9796054,35.6649598 C11.9666145,36.8314609 13.221681,37.6783298 14.5147094,38.3849679 C19.7371806,41.2389395 25.9768754,41.9675131 31.487547,39.8295805 C36.997444,37.6908644 41.6233712,32.5532454 43.0829671,26.2632266 C44.5441124,19.9739912 42.5553743,12.7368268 37.8922599,8.86755254 C29.7963062,2.14822371 15.2909912,4.37703221 8.93973492,13.0846619 Z" id="Stroke-11" stroke="#060300" stroke-width="3.386" stroke-linecap="round" stroke-linejoin="round"></path>
                        <path d="M28.7735233,10.8319684 C26.9870116,12.6057787 25.3367843,14.5304801 23.8472839,16.5792477" id="Stroke-13" stroke="#060300" stroke-width="3.386" stroke-linecap="round" stroke-linejoin="round"></path>
                        <path d="M23.09753,10.0171652 C24.8223347,12.640027 27.0736749,14.891875 29.6658492,16.5854845" id="Stroke-15" stroke="#060300" stroke-width="3.386" stroke-linecap="round" stroke-linejoin="round"></path>
                        <path d="M110.719884,11.0466426 C107.448474,8.96337127 103.026881,9.14728024 99.6593669,11.0698244 C96.2926213,12.9939141 93.9530444,16.4549573 92.8828206,20.1965004 C91.8110592,23.9372707 91.9194654,27.9392226 92.6352545,31.7649929 C93.2710843,35.1665361 94.7257275,38.8733064 97.9202533,40.1683965 C98.9520351,40.5872144 100.077615,40.7085325 101.189356,40.7858052 C104.543801,41.0214869 108.206549,40.7981688 110.78831,38.6322157 C114.080479,40.8561233 118.358298,42.0994407 122.090243,40.7494871 C124.894967,39.7356695 127.075394,37.3533529 128.307074,34.6248547 C129.537985,31.8963564 129.897802,28.8425402 129.851672,25.8466785 C129.777094,21.0611816 128.549258,16.0284121 125.154835,12.671687 C121.760411,9.31418922 114.304211,7.89469014 110.719884,11.0466426" id="Fill-17" fill="#A4D587"></path>
                        <path d="M110.719884,11.0466426 C107.448474,8.96337127 103.026881,9.14728024 99.6593669,11.0698244 C96.2926213,12.9939141 93.9522756,16.4549573 92.8828206,20.1965004 C91.8110592,23.9372707 91.9194654,27.9392226 92.6352545,31.7649929 C93.2710843,35.1665361 94.7257275,38.8733064 97.9202533,40.1683965 C98.9520351,40.5872144 100.077615,40.7085325 101.189356,40.7858052 C104.543801,41.0214869 108.20578,40.7981688 110.78831,38.6322157 C114.080479,40.8561233 118.358298,42.0994407 122.090243,40.7494871 C124.894967,39.7356695 127.074625,37.3533529 128.307074,34.6248547 C129.537985,31.8963564 129.897802,28.8425402 129.851672,25.8466785 C129.777094,21.0611816 128.54849,16.0284121 125.154066,12.671687 C121.760411,9.31418922 114.304211,7.89469014 110.719884,11.0466426 Z" id="Stroke-19" stroke="#060300" stroke-width="3.386" stroke-linecap="round" stroke-linejoin="round"></path>
                        <path d="M109.694257,9.31525262 C109.164605,5.19915085 112.230164,0.943399855 116.202933,0.28381368" id="Stroke-21" stroke="#060300" stroke-width="3.386" stroke-linecap="round" stroke-linejoin="round"></path>
                    </g>
                </g>
            </g>
        </g>
    </g>
</svg>