<svg width="61" height="72" xmlns="http://www.w3.org/2000/svg"><g id="Symbols" stroke="none" stroke-width="1" fill="none" fill-rule="evenodd"><g id="Nav-Tab/Nav-collapse" transform="translate(-13)" fill="#B30838"><g id="Menu-Tab" transform="translate(13)"><g id="Group" transform="translate(0 3.5)"><g id="Menu-Tab" transform="translate(0 5.385)"><path d="M60.862 0v30.809c0 17.031-13.135 30.844-30.116 30.844C13.77 61.653 0 47.84 0 30.809V0h60.862Z" id="Fill-1"/></g><path id="Rectangle" d="M0 0h6.639v6.186H0z"/><path id="Rectangle-Copy-3" d="M17.705 0h6.639v6.186h-6.639z"/><path id="Rectangle-Copy-5" d="M36.517 0h6.639v6.186h-6.639z"/><path id="Rectangle-Copy-2" d="M8.853 0h6.639v6.186H8.853z"/><path id="Rectangle-Copy-4" d="M26.558 0h7.746v6.186h-7.746z"/><path id="Rectangle-Copy-6" d="M45.37 0h6.639v6.186H45.37z"/><path id="Rectangle-Copy-7" d="M54.222 0h6.639v6.186h-6.639z"/></g><path id="Rectangle-Copy" d="M0 0h61v6H0z"/></g></g></g></svg>