<?xml version="1.0" encoding="UTF-8"?>
<svg width="117px" height="118px" viewBox="0 0 117 118" version="1.1" xmlns="http://www.w3.org/2000/svg" xmlns:xlink="http://www.w3.org/1999/xlink">
    <title>Group 17</title>
    <g id="Homepage" stroke="none" stroke-width="1" fill="none" fill-rule="evenodd">
        <g id="Homepage-_-Greeting-3" transform="translate(-445.000000, -871.000000)">
            <g id="Group-17" transform="translate(503.500000, 930.000000) scale(-1, 1) translate(-503.500000, -930.000000) translate(447.000000, 873.000000)">
                <path d="M44.3231468,97.6956957 C55.9733663,100.444669 68.0801554,100.155489 80.0142346,99.5048341 C87.346708,99.1063299 95.074191,98.438042 101.112196,94.1303178 C106.279811,90.4415093 109.569848,84.4445507 111.218286,78.1901512 C112.865015,71.9375151 113.018915,65.3780661 112.998395,58.8979652 C112.953935,44.1462579 111.442296,27.9222013 101.238735,17.5840158 C96.6508096,12.9359761 90.7393449,9.98246073 84.9424501,7.11182012 C79.7235349,4.52683293 74.4327996,1.91715965 68.7538948,0.756913013 C64.4908686,-0.11415361 60.1013026,-0.14589288 55.7715865,0.222635307 C39.5419912,1.60505683 23.8288153,8.75697226 11.9032861,20.1901625 C9.0441687,22.9303195 6.37828111,25.9349703 4.41007288,29.4104203 C0.687406246,35.9822125 -0.314652848,43.8711843 0.0803567948,51.4709761 C0.853276097,66.250896 7.18540038,81.1789325 18.8749498,89.7679315 C18.0387606,98.4768344 12.1888559,106.907137 4.56055275,110.744062 C9.0390387,113.630572 14.6033737,114.360576 19.8616189,113.849221 C25.1198642,113.336103 30.1746196,111.329475 34.7044055,108.53113 C38.9947916,105.880901 42.6114384,102.541224 44.3231468,97.6956957" id="Fill-1" fill="#FAFBFC"></path>
                <path d="M44.3231468,97.6956957 C55.9733663,100.444669 68.0801554,100.155489 80.0142346,99.5048341 C87.346708,99.1063299 95.074191,98.438042 101.112196,94.1303178 C106.279811,90.4415093 109.569848,84.4445507 111.218286,78.1901512 C112.865015,71.9375151 113.018915,65.3780661 112.998395,58.8979652 C112.953935,44.1462579 111.442296,27.9222013 101.238735,17.5840158 C96.6508096,12.9359761 90.7393449,9.98246073 84.9424501,7.11182012 C79.7235349,4.52683293 74.4327996,1.91715965 68.7538948,0.756913013 C64.4908686,-0.11415361 60.1013026,-0.14589288 55.7715865,0.222635307 C39.5419912,1.60505683 23.8288153,8.75697226 11.9032861,20.1901625 C9.0441687,22.9303195 6.37828111,25.9349703 4.41007288,29.4104203 C0.687406246,35.9822125 -0.314652848,43.8711843 0.0803567948,51.4709761 C0.853276097,66.250896 7.18540038,81.1789325 18.8749498,89.7679315 C18.0387606,98.4768344 12.1888559,106.907137 4.56055275,110.744062 C9.0390387,113.630572 14.6033737,114.360576 19.8616189,113.849221 C25.1198642,113.336103 30.1746196,111.329475 34.7044055,108.53113 C38.9947916,105.880901 42.6114384,102.541224 44.3231468,97.6956957 Z" id="Stroke-3" stroke="#060300" stroke-width="4" stroke-linecap="round" stroke-linejoin="round"></path>
                <g id="Group-10" transform="translate(59.500000, 50.500000) scale(-1, 1) translate(-59.500000, -50.500000) translate(19.000000, 33.000000)" stroke="#060300" stroke-linecap="round" stroke-linejoin="round" stroke-width="4">
                    <path d="M0.601815789,5.83333333 C0.860447368,15.5525608 0.887447368,25.2807725 0.681394737,35 C0.726868421,34.556175 0.772342105,34.114147 0.819236842,33.670322" id="Stroke-5"></path>
                    <path d="M1.42105263,20.1065259 C2.98064931,17.4655821 6.63870123,16.8152648 9.25810734,18.2297481 C11.8807694,19.6425064 13.4843213,22.6525959 13.9906204,25.7230596 C14.4952916,28.7935233 14.0508554,31.9450611 13.4680416,35" id="Stroke-7"></path>
                    <path d="M25.0698201,27.8864467 C27.2925502,27.5558484 29.6019261,27.1911123 31.4515488,25.8974667 C33.3011715,24.6038212 34.528359,22.0830092 33.6424499,19.9844286 C32.8873936,18.1930889 30.7583824,17.2551959 28.8627844,17.5552498 C26.9671863,17.8553037 25.3439037,19.1938675 24.2917761,20.8235015 C22.7374565,23.2257294 22.2936177,26.3592263 23.2095877,29.0812721 C24.1255576,31.7997244 26.4101776,34.0258728 29.1510143,34.7463615 C31.8883144,35.4686469 34.9969537,34.6223871 36.9473684,32.5381804" id="Stroke-9"></path>
                    <path d="M46.1614737,2.91666667 C46.1771053,13.1238209 46.1913158,23.3327438 46.2069474,33.5416667" id="Stroke-11"></path>
                    <path d="M57.8091316,0 C57.6371842,11.1811602 57.4666579,22.3605065 57.2961316,33.5416667" id="Stroke-13"></path>
                    <path d="M69.1352282,18.9587345 C67.6393023,20.9050212 66.9450127,23.3908726 66.8099638,25.8539501 C66.6835719,28.1295815 67.1164208,30.6399585 68.823577,32.1272649 C69.9974632,33.1485837 71.6041984,33.523476 73.1503347,33.5409944 C75.3976863,33.5672719 77.7541158,32.8244946 79.2084881,31.0919315 C80.5641709,29.4767413 80.9606605,27.2484094 80.9970199,25.130443 C81.0299164,23.2279521 80.7979093,21.2729062 79.9287487,19.584139 C77.5203774,14.9137515 72.1617078,15.024117 69.1352282,18.9587345 Z" id="Stroke-15"></path>
                </g>
            </g>
        </g>
    </g>
</svg>